<svg width="46" height="46" viewBox="0 0 46 46" fill="none" xmlns="http://www.w3.org/2000/svg">
<path d="M36.3333 3H9.66669C5.98478 3 3 5.98478 3 9.66669V36.3333C3 40.0152 5.98478 43 9.66669 43H36.3333C40.0152 43 43 40.0152 43 36.3333V9.66669C43 5.98478 40.0152 3 36.3333 3Z" fill="url(#paint0_linear_2541_58)" fill-opacity="0.2"/>
<rect x="1" y="1" width="44" height="44" rx="6.6" fill="url(#paint1_linear_2541_58)"/>
<rect x="0.5" y="0.5" width="45" height="45" rx="7.1" stroke="white" stroke-opacity="0.4"/>
<path fill-rule="evenodd" clip-rule="evenodd" d="M17.6965 11.035L28.4129 11.035C28.8902 11.035 29.2772 11.4219 29.2772 11.8992L29.2772 17.9488C29.2772 18.4261 28.8902 18.8131 28.4129 18.8131L17.6965 18.8131C17.2192 18.8131 16.8323 18.4261 16.8323 17.9488L16.8323 11.8992C16.8323 11.4219 17.2192 11.035 17.6965 11.035Z" stroke="#133B84" stroke-width="1.5"/>
<path fill-rule="evenodd" clip-rule="evenodd" d="M7.8254 29.7796L18.5418 29.7796C19.0191 29.7796 19.4061 30.1666 19.4061 30.6439L19.4061 34.1008C19.4061 34.5781 19.0191 34.965 18.5418 34.965L7.8254 34.965C7.3481 34.965 6.96117 34.5781 6.96117 34.1008L6.96117 30.6439C6.96117 30.1666 7.3481 29.7796 7.8254 29.7796Z" stroke="#133B84" stroke-width="1.5"/>
<path fill-rule="evenodd" clip-rule="evenodd" d="M27.4563 29.7796L38.1727 29.7796C38.65 29.7796 39.0369 30.1666 39.0369 30.6439L39.0369 34.1008C39.0369 34.5781 38.65 34.965 38.1727 34.965L27.4563 34.965C26.979 34.965 26.592 34.5781 26.592 34.1008L26.592 30.6439C26.592 30.1666 26.979 29.7796 27.4563 29.7796Z" stroke="#133B84" stroke-width="1.5"/>
<path d="M23.123 18.7839V24.1727" stroke="#133B84" stroke-width="1.5"/>
<path d="M32.8938 30.358V25.9011C32.8938 24.9465 32.1199 24.1726 31.1653 24.1726H14.8339C13.8793 24.1726 13.1055 24.9465 13.1055 25.9011V30.358" stroke="#133B84" stroke-width="1.5"/>
<path d="M36.3333 3H9.66669C5.98478 3 3 5.98478 3 9.66669V36.3333C3 40.0152 5.98478 43 9.66669 43H36.3333C40.0152 43 43 40.0152 43 36.3333V9.66669C43 5.98478 40.0152 3 36.3333 3Z" fill="url(#paint2_linear_2541_58)" fill-opacity="0.2"/>
<rect x="1" y="1" width="44" height="44" rx="6" fill="url(#paint3_linear_2541_58)"/>
<rect x="0.5" y="0.5" width="45" height="45" rx="6.5" stroke="white" stroke-opacity="0.4"/>
<circle cx="18.8588" cy="12.6" r="5.6" stroke="#133B84" stroke-width="1.5"/>
<path d="M18.5674 9.48999V12.7185L20.8541 13.7946" stroke="#133B84" stroke-width="1.5" stroke-linecap="round" stroke-linejoin="round"/>
<path d="M23.5412 33.4L25.4079 35.2667L29.1412 31.5334M23.7279 39H28.9545C30 39 30.5227 39 30.922 38.7966C31.2732 38.6176 31.5588 38.3321 31.7378 37.9808C31.9412 37.5815 31.9412 37.0588 31.9412 36.0134V30.7867C31.9412 29.7413 31.9412 29.2186 31.7378 28.8193C31.5588 28.468 31.2732 28.1825 30.922 28.0035C30.5227 27.8 30 27.8 28.9545 27.8H23.7279C22.6824 27.8 22.1597 27.8 21.7604 28.0035C21.4092 28.1825 21.1236 28.468 20.9447 28.8193C20.7412 29.2186 20.7412 29.7413 20.7412 30.7867V36.0134C20.7412 37.0588 20.7412 37.5815 20.9447 37.9808C21.1236 38.3321 21.4092 38.6176 21.7604 38.7966C22.1597 39 22.6824 39 23.7279 39Z" stroke="#133B84" stroke-width="1.5" stroke-linecap="round" stroke-linejoin="round"/>
<path d="M28.9 12.5999L34.6 12.5999C35.9255 12.5999 37 13.6744 37 14.9999V20.7881C37 22.1136 35.9255 23.1881 34.6 23.1881H11.4C10.0745 23.1881 9 24.2626 9 25.5881V31.141C9 32.4665 10.0745 33.541 11.4 33.541H16.6286" stroke="#133B84" stroke-width="1.5" stroke-linecap="round"/>
<defs>
<linearGradient id="paint0_linear_2541_58" x1="43" y1="6.32943" x2="3" y2="39.6706" gradientUnits="userSpaceOnUse">
<stop stop-color="#2F77FB"/>
<stop offset="1" stop-color="#A6C5FF"/>
</linearGradient>
<linearGradient id="paint1_linear_2541_58" x1="6.37769" y1="1" x2="39.6223" y2="45" gradientUnits="userSpaceOnUse">
<stop stop-color="#ECF3FF"/>
<stop offset="1" stop-color="#76A7FF"/>
</linearGradient>
<linearGradient id="paint2_linear_2541_58" x1="43" y1="6.32943" x2="3" y2="39.6706" gradientUnits="userSpaceOnUse">
<stop stop-color="#2F77FB"/>
<stop offset="1" stop-color="#A6C5FF"/>
</linearGradient>
<linearGradient id="paint3_linear_2541_58" x1="6.37769" y1="1" x2="39.6223" y2="45" gradientUnits="userSpaceOnUse">
<stop stop-color="#ECF3FF"/>
<stop offset="1" stop-color="#76A7FF"/>
</linearGradient>
</defs>
</svg>
